<?xml version="1.0" encoding="UTF-8"?>
<!-- Created with Inkscape (http://www.inkscape.org/) -->
<svg fill="currentColor" width="213.49mm" height="33.851mm" version="1.1" viewBox="0 0 213.49 33.851" xmlns="http://www.w3.org/2000/svg">
 <g transform="translate(-20.18 -86.643)" stroke-width="0">
  <g transform="scale(1.0938 .91421)" stroke="#f0f" aria-label="██    ██ ███████ ██   ██ ██       █████  ██████  ███████   ██  ██  ██       ██ ██  ██      ██   ██ ██   ██ ██         ████   █████     ███   ██      ███████ ██████  ███████     ██    ██       ██ ██  ██      ██   ██ ██   ██      ██     ██    ███████ ██   ██ ███████ ██   ██ ██████  ███████ ">
   <path d="m18.449 102.44v-7.6629h3.5992v7.6629z"/>
   <path d="m21.932 102.44v-7.6629h3.5992v7.6629z"/>
   <path d="m39.347 102.44v-7.6629h3.5992v7.6629z"/>
   <path d="m42.831 102.44v-7.6629h3.5992v7.6629z"/>
   <path d="m49.797 102.44v-7.6629h3.5992v7.6629z"/>
   <path d="m53.28 102.44v-7.6629h3.5992v7.6629z"/>
   <path d="m56.763 102.44v-7.6629h3.5992v7.6629z"/>
   <path d="m60.246 102.44v-7.6629h3.5992v7.6629z"/>
   <path d="m63.729 102.44v-7.6629h3.5992v7.6629z"/>
   <path d="m67.212 102.44v-7.6629h3.5992v7.6629z"/>
   <path d="m70.696 102.44v-7.6629h3.5992v7.6629z"/>
   <path d="m77.662 102.44v-7.6629h3.5992v7.6629z"/>
   <path d="m81.145 102.44v-7.6629h3.5992v7.6629z"/>
   <path d="m95.078 102.44v-7.6629h3.5992v7.6629z"/>
   <path d="m98.561 102.44v-7.6629h3.5992v7.6629z"/>
   <path d="m105.53 102.44v-7.6629h3.5992v7.6629z"/>
   <path d="m109.01 102.44v-7.6629h3.5992v7.6629z"/>
   <path d="m136.88 102.44v-7.6629h3.5992v7.6629z"/>
   <path d="m140.36 102.44v-7.6629h3.5992v7.6629z"/>
   <path d="m143.84 102.44v-7.6629h3.5992v7.6629z"/>
   <path d="m147.32 102.44v-7.6629h3.5992v7.6629z"/>
   <path d="m150.81 102.44v-7.6629h3.5992v7.6629z"/>
   <path d="m161.26 102.44v-7.6629h3.5992v7.6629z"/>
   <path d="m164.74 102.44v-7.6629h3.5992v7.6629z"/>
   <path d="m168.22 102.44v-7.6629h3.5992v7.6629z"/>
   <path d="m171.71 102.44v-7.6629h3.5992v7.6629z"/>
   <path d="m175.19 102.44v-7.6629h3.5992v7.6629z"/>
   <path d="m178.67 102.44v-7.6629h3.5992v7.6629z"/>
   <path d="m189.12 102.44v-7.6629h3.5992v7.6629z"/>
   <path d="m192.61 102.44v-7.6629h3.5992v7.6629z"/>
   <path d="m196.09 102.44v-7.6629h3.5992v7.6629z"/>
   <path d="m199.57 102.44v-7.6629h3.5992v7.6629z"/>
   <path d="m203.05 102.44v-7.6629h3.5992v7.6629z"/>
   <path d="m206.54 102.44v-7.6629h3.5992v7.6629z"/>
   <path d="m210.02 102.44v-7.6629h3.5992v7.6629z"/>
   <path d="m21.932 109.78v-7.6629h3.5992v7.6629z"/>
   <path d="m25.415 109.78v-7.6629h3.5992v7.6629z"/>
   <path d="m35.864 109.78v-7.6629h3.5992v7.6629z"/>
   <path d="m39.347 109.78v-7.6629h3.5992v7.6629z"/>
   <path d="m49.797 109.78v-7.6629h3.5992v7.6629z"/>
   <path d="m53.28 109.78v-7.6629h3.5992v7.6629z"/>
   <path d="m81.145 109.78v-7.6629h3.5992v7.6629z"/>
   <path d="m84.628 109.78v-7.6629h3.5992v7.6629z"/>
   <path d="m91.594 109.78v-7.6629h3.5992v7.6629z"/>
   <path d="m95.078 109.78v-7.6629h3.5992v7.6629z"/>
   <path d="m105.53 109.78v-7.6629h3.5992v7.6629z"/>
   <path d="m109.01 109.78v-7.6629h3.5992v7.6629z"/>
   <path d="m133.39 109.78v-7.6629h3.5992v7.6629z"/>
   <path d="m136.88 109.78v-7.6629h3.5992v7.6629z"/>
   <path d="m150.81 109.78v-7.6629h3.5992v7.6629z"/>
   <path d="m154.29 109.78v-7.6629h3.5992v7.6629z"/>
   <path d="m161.26 109.78v-7.6629h3.5992v7.6629z"/>
   <path d="m164.74 109.78v-7.6629h3.5992v7.6629z"/>
   <path d="m178.67 109.78v-7.6629h3.5992v7.6629z"/>
   <path d="m182.16 109.78v-7.6629h3.5992v7.6629z"/>
   <path d="m189.12 109.78v-7.6629h3.5992v7.6629z"/>
   <path d="m192.61 109.78v-7.6629h3.5992v7.6629z"/>
   <path d="m25.415 117.12v-7.6629h3.5992v7.6629z"/>
   <path d="m28.898 117.12v-7.6629h3.5992v7.6629z"/>
   <path d="m32.381 117.12v-7.6629h3.5992v7.6629z"/>
   <path d="m35.864 117.12v-7.6629h3.5992v7.6629z"/>
   <path d="m49.797 117.12v-7.6629h3.5992v7.6629z"/>
   <path d="m53.28 117.12v-7.6629h3.5992v7.6629z"/>
   <path d="m56.763 117.12v-7.6629h3.5992v7.6629z"/>
   <path d="m60.246 117.12v-7.6629h3.5992v7.6629z"/>
   <path d="m63.729 117.12v-7.6629h3.5992v7.6629z"/>
   <path d="m84.628 117.12v-7.6629h3.5992v7.6629z"/>
   <path d="m88.111 117.12v-7.6629h3.5992v7.6629z"/>
   <path d="m91.594 117.12v-7.6629h3.5992v7.6629z"/>
   <path d="m105.53 117.12v-7.6629h3.5992v7.6629z"/>
   <path d="m109.01 117.12v-7.6629h3.5992v7.6629z"/>
   <path d="m133.39 117.12v-7.6629h3.5992v7.6629z"/>
   <path d="m136.88 117.12v-7.6629h3.5992v7.6629z"/>
   <path d="m140.36 117.12v-7.6629h3.5992v7.6629z"/>
   <path d="m143.84 117.12v-7.6629h3.5992v7.6629z"/>
   <path d="m147.32 117.12v-7.6629h3.5992v7.6629z"/>
   <path d="m150.81 117.12v-7.6629h3.5992v7.6629z"/>
   <path d="m154.29 117.12v-7.6629h3.5992v7.6629z"/>
   <path d="m161.26 117.12v-7.6629h3.5992v7.6629z"/>
   <path d="m164.74 117.12v-7.6629h3.5992v7.6629z"/>
   <path d="m168.22 117.12v-7.6629h3.5992v7.6629z"/>
   <path d="m171.71 117.12v-7.6629h3.5992v7.6629z"/>
   <path d="m175.19 117.12v-7.6629h3.5992v7.6629z"/>
   <path d="m178.67 117.12v-7.6629h3.5992v7.6629z"/>
   <path d="m189.12 117.12v-7.6629h3.5992v7.6629z"/>
   <path d="m192.61 117.12v-7.6629h3.5992v7.6629z"/>
   <path d="m196.09 117.12v-7.6629h3.5992v7.6629z"/>
   <path d="m199.57 117.12v-7.6629h3.5992v7.6629z"/>
   <path d="m203.05 117.12v-7.6629h3.5992v7.6629z"/>
   <path d="m206.54 117.12v-7.6629h3.5992v7.6629z"/>
   <path d="m210.02 117.12v-7.6629h3.5992v7.6629z"/>
   <path d="m28.898 124.46v-7.6629h3.5992v7.6629z"/>
   <path d="m32.381 124.46v-7.6629h3.5992v7.6629z"/>
   <path d="m49.797 124.46v-7.6629h3.5992v7.6629z"/>
   <path d="m53.28 124.46v-7.6629h3.5992v7.6629z"/>
   <path d="m81.145 124.46v-7.6629h3.5992v7.6629z"/>
   <path d="m84.628 124.46v-7.6629h3.5992v7.6629z"/>
   <path d="m91.594 124.46v-7.6629h3.5992v7.6629z"/>
   <path d="m95.078 124.46v-7.6629h3.5992v7.6629z"/>
   <path d="m105.53 124.46v-7.6629h3.5992v7.6629z"/>
   <path d="m109.01 124.46v-7.6629h3.5992v7.6629z"/>
   <path d="m133.39 124.46v-7.6629h3.5992v7.6629z"/>
   <path d="m136.88 124.46v-7.6629h3.5992v7.6629z"/>
   <path d="m150.81 124.46v-7.6629h3.5992v7.6629z"/>
   <path d="m154.29 124.46v-7.6629h3.5992v7.6629z"/>
   <path d="m161.26 124.46v-7.6629h3.5992v7.6629z"/>
   <path d="m164.74 124.46v-7.6629h3.5992v7.6629z"/>
   <path d="m178.67 124.46v-7.6629h3.5992v7.6629z"/>
   <path d="m182.16 124.46v-7.6629h3.5992v7.6629z"/>
   <path d="m206.54 124.46v-7.6629h3.5992v7.6629z"/>
   <path d="m210.02 124.46v-7.6629h3.5992v7.6629z"/>
   <path d="m28.898 131.8v-7.6629h3.5992v7.6629z"/>
   <path d="m32.381 131.8v-7.6629h3.5992v7.6629z"/>
   <path d="m49.797 131.8v-7.6629h3.5992v7.6629z"/>
   <path d="m53.28 131.8v-7.6629h3.5992v7.6629z"/>
   <path d="m56.763 131.8v-7.6629h3.5992v7.6629z"/>
   <path d="m60.246 131.8v-7.6629h3.5992v7.6629z"/>
   <path d="m63.729 131.8v-7.6629h3.5992v7.6629z"/>
   <path d="m67.212 131.8v-7.6629h3.5992v7.6629z"/>
   <path d="m70.696 131.8v-7.6629h3.5992v7.6629z"/>
   <path d="m77.662 131.8v-7.6629h3.5992v7.6629z"/>
   <path d="m81.145 131.8v-7.6629h3.5992v7.6629z"/>
   <path d="m95.078 131.8v-7.6629h3.5992v7.6629z"/>
   <path d="m98.561 131.8v-7.6629h3.5992v7.6629z"/>
   <path d="m105.53 131.8v-7.6629h3.5992v7.6629z"/>
   <path d="m109.01 131.8v-7.6629h3.5992v7.6629z"/>
   <path d="m112.49 131.8v-7.6629h3.5992v7.6629z"/>
   <path d="m115.98 131.8v-7.6629h3.5992v7.6629z"/>
   <path d="m119.46 131.8v-7.6629h3.5992v7.6629z"/>
   <path d="m122.94 131.8v-7.6629h3.5992v7.6629z"/>
   <path d="m126.43 131.8v-7.6629h3.5992v7.6629z"/>
   <path d="m133.39 131.8v-7.6629h3.5992v7.6629z"/>
   <path d="m136.88 131.8v-7.6629h3.5992v7.6629z"/>
   <path d="m150.81 131.8v-7.6629h3.5992v7.6629z"/>
   <path d="m154.29 131.8v-7.6629h3.5992v7.6629z"/>
   <path d="m161.26 131.8v-7.6629h3.5992v7.6629z"/>
   <path d="m164.74 131.8v-7.6629h3.5992v7.6629z"/>
   <path d="m168.22 131.8v-7.6629h3.5992v7.6629z"/>
   <path d="m171.71 131.8v-7.6629h3.5992v7.6629z"/>
   <path d="m175.19 131.8v-7.6629h3.5992v7.6629z"/>
   <path d="m178.67 131.8v-7.6629h3.5992v7.6629z"/>
   <path d="m189.12 131.8v-7.6629h3.5992v7.6629z"/>
   <path d="m192.61 131.8v-7.6629h3.5992v7.6629z"/>
   <path d="m196.09 131.8v-7.6629h3.5992v7.6629z"/>
   <path d="m199.57 131.8v-7.6629h3.5992v7.6629z"/>
   <path d="m203.05 131.8v-7.6629h3.5992v7.6629z"/>
   <path d="m206.54 131.8v-7.6629h3.5992v7.6629z"/>
   <path d="m210.02 131.8v-7.6629h3.5992v7.6629z"/>
  </g>
  <text transform="matrix(.26458 0 0 .26458 20.18 79.991)" fill="#000000" font-family="'JetBrains Mono'" font-size="24px" style="shape-inside:url(#rect4731);white-space:pre" xml:space="preserve"/>
 </g>
</svg>
